<svg width="50" height="50" viewBox="0 0 50 50" fill="none" xmlns="http://www.w3.org/2000/svg">
<circle cx="25" cy="25" r="25" fill="#353338"/>
<path d="M15.353 37.32C13.945 37.32 12.7183 37.0533 11.673 36.52C10.649 35.9867 9.849 35.2187 9.273 34.216C8.71833 33.192 8.441 31.9867 8.441 30.6V20.04C8.441 18.632 8.71833 17.4267 9.273 16.424C9.849 15.4213 10.649 14.6533 11.673 14.12C12.7183 13.5867 13.945 13.32 15.353 13.32C16.761 13.32 17.977 13.5973 19.001 14.152C20.025 14.6853 20.8143 15.4533 21.369 16.456C21.9237 17.4587 22.201 18.6533 22.201 20.04H19.321C19.321 18.7173 18.969 17.704 18.265 17C17.5823 16.2747 16.6117 15.912 15.353 15.912C14.0943 15.912 13.1023 16.264 12.377 16.968C11.673 17.672 11.321 18.6853 11.321 20.008V30.6C11.321 31.9227 11.673 32.9467 12.377 33.672C13.1023 34.376 14.0943 34.728 15.353 34.728C16.6117 34.728 17.5823 34.376 18.265 33.672C18.969 32.9467 19.321 31.9227 19.321 30.6H22.201C22.201 31.9653 21.9237 33.16 21.369 34.184C20.8143 35.1867 20.025 35.9653 19.001 36.52C17.977 37.0533 16.761 37.32 15.353 37.32ZM32.4285 37L26.4125 13.64H29.3885L33.3565 29.512C33.6338 30.6213 33.8685 31.656 34.0605 32.616C34.2525 33.5547 34.3912 34.2693 34.4765 34.76C34.5618 34.2693 34.6898 33.5547 34.8605 32.616C35.0525 31.656 35.2872 30.6213 35.5645 29.512L39.5005 13.64H42.4125L36.3645 37H32.4285Z" fill="#FAF7FA"/>
</svg>
